<svg xmlns="http://www.w3.org/2000/svg" version="1.1" xmlns:xlink="http://www.w3.org/1999/xlink" xmlns:svgjs="http://svgjs.com/svgjs" width="1000" height="1000"><rect width="1000" height="1000" rx="50" ry="50" fill="#ffffff"></rect><g transform="matrix(1.1976047904191616,0,0,1.1976047904191616,100.00000000000006,100.00000000000006)"><svg xmlns="http://www.w3.org/2000/svg" version="1.1" xmlns:xlink="http://www.w3.org/1999/xlink" xmlns:svgjs="http://svgjs.com/svgjs" width="668" height="668"><svg width="668" height="668" viewBox="0 0 668 668" fill="none" xmlns="http://www.w3.org/2000/svg">
<path fill-rule="evenodd" clip-rule="evenodd" d="M668 274.678V72V0H596H209.378L190.086 72H596V255.386L668 274.678ZM112.44 72H72V596H596V333.031L668 352.324V596V668H596H72H0V596V72V0H72H131.733L112.44 72Z" fill="#212121"></path>
<path d="M332.922 542C292.495 542 258.806 536.415 231.854 525.244C205.288 513.689 185.267 498.859 171.791 480.756C158.7 462.267 151.77 442.815 151 422.4C151 418.933 152.155 416.044 154.465 413.733C156.775 411.422 159.663 410.267 163.128 410.267H254.956C260.346 410.267 264.581 411.23 267.661 413.156C270.742 414.696 274.014 417.007 277.479 420.089C280.945 424.326 284.987 428.37 289.608 432.222C294.228 435.689 300.196 438.578 307.511 440.889C314.826 442.815 323.297 443.778 332.922 443.778C350.633 443.778 364.302 441.467 373.927 436.844C383.553 431.837 388.366 425.096 388.366 416.622C388.366 410.074 385.67 404.681 380.28 400.444C375.275 396.207 366.612 392.356 354.291 388.889C341.97 385.422 325.222 381.763 304.046 377.911C274.399 372.904 248.795 365.585 227.234 355.956C205.673 345.941 189.117 332.652 177.566 316.089C166.401 299.141 160.818 278.341 160.818 253.689C160.818 228.652 167.748 206.504 181.609 187.244C195.855 167.985 215.491 152.963 240.517 142.178C265.929 131.393 295.383 126 328.88 126C356.601 126 381.05 129.659 402.226 136.978C423.787 144.296 441.883 153.926 456.514 165.867C471.145 177.422 482.311 189.941 490.011 203.422C497.712 216.904 501.754 229.807 502.139 242.133C502.139 245.6 500.792 248.681 498.097 251.378C495.786 253.689 493.091 254.844 490.011 254.844H393.563C388.943 254.844 384.9 254.074 381.435 252.533C378.355 250.993 375.467 248.489 372.772 245.022C370.847 239.63 366.034 234.815 358.334 230.578C350.633 226.341 340.815 224.222 328.88 224.222C315.789 224.222 305.778 226.533 298.848 231.156C291.918 235.393 288.453 241.748 288.453 250.222C288.453 256 290.57 261.007 294.805 265.244C299.041 269.481 306.549 273.333 317.329 276.8C328.11 279.881 343.126 283.348 362.377 287.2C398.954 292.593 428.408 300.296 450.739 310.311C473.455 320.326 490.011 333.422 500.407 349.6C510.802 365.778 516 386 516 410.267C516 437.615 508.107 461.111 492.321 480.756C476.535 500.4 454.782 515.615 427.06 526.4C399.724 536.8 368.344 542 332.922 542Z" fill="#212121"></path>
</svg></svg></g></svg>