<svg xmlns="http://www.w3.org/2000/svg" version="1.1" xmlns:xlink="http://www.w3.org/1999/xlink" xmlns:svgjs="http://svgjs.com/svgjs" width="1000" height="1000"><rect width="1000" height="1000" rx="100" ry="100" fill="#ffffff"></rect><g transform="matrix(3.076923076923077,0,0,3.076923076923077,101.03846153846149,101.03846153846149)"><svg xmlns="http://www.w3.org/2000/svg" version="1.1" xmlns:xlink="http://www.w3.org/1999/xlink" xmlns:svgjs="http://svgjs.com/svgjs" width="260" height="260"><svg width="260" height="260" viewBox="0 0 260 260" fill="none" xmlns="http://www.w3.org/2000/svg">
<path d="M82.1545 54.9522V103.971H152.92C153.594 103.971 153.931 104.313 154.267 104.649V103.971H199.422V248H122.929L111.472 202.693H154.267V148.601C153.931 148.937 153.594 149.278 152.92 149.278H39.3584C38.3471 149.278 37.3371 148.265 37.3371 146.91V54.9522L76.7625 11H222L199.759 54.9522H82.1545ZM96.9817 202.693L109.113 248H37V202.693H96.9817Z" fill="#212121"></path>
</svg></svg></g></svg>