<svg preserveAspectRatio="xMaxYMid meet" viewBox="0 0 1893 668" fill="none" xmlns="http://www.w3.org/2000/svg">
  <path d="M841.456 288.373V322.033H780.421V348.788H825.44V380.938H780.421V440.49H738V288.373H841.456Z" fill="currentColor" />
  <path d="M936.59 440.49L906.289 384.39H901.744V440.49H859.322V288.373H926.201C938.466 288.373 948.855 290.531 957.368 294.846C965.881 299.018 972.302 304.844 976.631 312.324C980.959 319.66 983.124 327.931 983.124 337.137C983.124 347.494 980.238 356.628 974.466 364.539C968.839 372.307 960.542 377.845 949.576 381.154L983.99 440.49H936.59ZM901.744 355.477H922.738C928.51 355.477 932.839 354.111 935.724 351.378C938.61 348.645 940.053 344.689 940.053 339.51C940.053 334.62 938.538 330.808 935.508 328.075C932.622 325.198 928.366 323.759 922.738 323.759H901.744V355.477Z" fill="currentColor" />
  <path d="M1075.57 442C1061.29 442 1048.16 438.692 1036.18 432.075C1024.2 425.314 1014.68 416.036 1007.61 404.241C1000.68 392.302 997.221 378.852 997.221 363.892C997.221 348.932 1000.68 335.555 1007.61 323.759C1014.68 311.82 1024.2 302.542 1036.18 295.925C1048.16 289.308 1061.29 286 1075.57 286C1090 286 1103.13 289.308 1114.96 295.925C1126.94 302.542 1136.39 311.82 1143.32 323.759C1150.24 335.555 1153.7 348.932 1153.7 363.892C1153.7 378.852 1150.24 392.302 1143.32 404.241C1136.39 416.036 1126.94 425.314 1114.96 432.075C1102.99 438.692 1089.86 442 1075.57 442ZM1075.57 402.73C1086.39 402.73 1094.91 399.206 1101.11 392.158C1107.46 385.109 1110.63 375.687 1110.63 363.892C1110.63 351.809 1107.46 342.315 1101.11 335.411C1094.91 328.362 1086.39 324.838 1075.57 324.838C1064.6 324.838 1056.02 328.362 1049.81 335.411C1043.61 342.315 1040.51 351.809 1040.51 363.892C1040.51 375.831 1043.61 385.325 1049.81 392.373C1056.02 399.278 1064.6 402.73 1075.57 402.73Z" fill="currentColor" />
  <path d="M1314.11 440.49H1271.69L1215.2 355.477V440.49H1172.77V288.373H1215.2L1271.69 374.465V288.373H1314.11V440.49Z" fill="currentColor" />
  <path d="M1453.2 288.373V322.033H1412.51V440.49H1370.09V322.033H1329.83V288.373H1453.2Z" fill="currentColor" />
  <path d="M1511.32 322.249V347.062H1560.01V379.212H1511.32V406.614H1566.51V440.49H1468.89V288.373H1566.51V322.249H1511.32Z" fill="currentColor" />
  <path d="M1728.8 440.49H1686.38L1629.89 355.477V440.49H1587.47V288.373H1629.89L1686.38 374.465V288.373H1728.8V440.49Z" fill="currentColor" />
  <path d="M1813.35 288.373C1829.37 288.373 1843.36 291.61 1855.34 298.083C1867.46 304.412 1876.77 313.331 1883.26 324.838C1889.75 336.346 1893 349.508 1893 364.324C1893 378.996 1889.68 392.086 1883.04 403.593C1876.55 415.101 1867.24 424.163 1855.12 430.78C1843.15 437.253 1829.22 440.49 1813.35 440.49H1752.97V288.373H1813.35ZM1810.11 403.162C1822.51 403.162 1832.25 399.781 1839.32 393.021C1846.39 386.26 1849.93 376.694 1849.93 364.324C1849.93 351.809 1846.39 342.172 1839.32 335.411C1832.25 328.506 1822.51 325.054 1810.11 325.054H1795.39V403.162H1810.11Z" fill="currentColor" />
  <path d="M795.379 517.328C810.598 517.328 823.898 520.502 835.278 526.851C846.795 533.058 855.638 541.805 861.808 553.091C867.978 564.378 871.063 577.286 871.063 591.817C871.063 606.207 867.909 619.046 861.602 630.332C855.432 641.618 846.589 650.506 835.072 656.996C823.692 663.344 810.461 666.519 795.379 666.519H738V517.328H795.379ZM792.294 629.909C804.086 629.909 813.34 626.593 820.059 619.963C826.777 613.332 830.136 603.95 830.136 591.817C830.136 579.544 826.777 570.091 820.059 563.461C813.34 556.689 804.086 553.303 792.294 553.303H778.31V629.909H792.294Z" fill="currentColor" />
  <path d="M929.543 550.552V574.888H975.816V606.419H929.543V633.295H981.986V666.519H889.233V517.328H981.986V550.552H929.543Z" fill="currentColor" />
  <path d="M1142.99 517.328L1093.01 666.519H1041.39L991.21 517.328H1034.4L1067.3 625.041L1100.01 517.328H1142.99Z" fill="currentColor" />
  <path d="M1195.86 550.552V574.888H1242.13V606.419H1195.86V633.295H1248.3V666.519H1155.55V517.328H1248.3V550.552H1195.86Z" fill="currentColor" />
  <path d="M1308.53 634.776H1353.57V666.519H1268.22V517.328H1308.53V634.776Z" fill="currentColor" />
  <path d="M1438.76 668C1425.18 668 1412.71 664.755 1401.33 658.266C1389.95 651.635 1380.9 642.535 1374.18 630.967C1367.6 619.257 1364.31 606.066 1364.31 591.394C1364.31 576.722 1367.6 563.602 1374.18 552.033C1380.9 540.324 1389.95 531.224 1401.33 524.734C1412.71 518.245 1425.18 515 1438.76 515C1452.47 515 1464.94 518.245 1476.19 524.734C1487.57 531.224 1496.55 540.324 1503.13 552.033C1509.71 563.602 1513 576.722 1513 591.394C1513 606.066 1509.71 619.257 1503.13 630.967C1496.55 642.535 1487.57 651.635 1476.19 658.266C1464.81 664.755 1452.33 668 1438.76 668ZM1438.76 629.485C1449.04 629.485 1457.13 626.029 1463.02 619.116C1469.06 612.203 1472.07 602.963 1472.07 591.394C1472.07 579.544 1469.06 570.232 1463.02 563.461C1457.13 556.548 1449.04 553.091 1438.76 553.091C1428.34 553.091 1420.18 556.548 1414.28 563.461C1408.39 570.232 1405.44 579.544 1405.44 591.394C1405.44 603.104 1408.39 612.415 1414.28 619.328C1420.18 626.1 1428.34 629.485 1438.76 629.485Z" fill="currentColor" />
  <path d="M1645.67 567.058C1645.67 576.087 1643.62 584.34 1639.5 591.817C1635.53 599.154 1629.43 605.079 1621.2 609.593C1613.11 613.967 1603.17 616.154 1591.38 616.154H1571.43V666.519H1531.12V517.328H1591.38C1603.03 517.328 1612.9 519.444 1620.99 523.676C1629.22 527.909 1635.39 533.763 1639.5 541.241C1643.62 548.718 1645.67 557.324 1645.67 567.058ZM1587.47 583.141C1598.85 583.141 1604.54 577.78 1604.54 567.058C1604.54 556.195 1598.85 550.763 1587.47 550.763H1571.43V583.141H1587.47Z" fill="currentColor" />
  <path d="M1702.18 550.552V574.888H1748.45V606.419H1702.18V633.295H1754.62V666.519H1661.87V517.328H1754.62V550.552H1702.18Z" fill="currentColor" />
  <path d="M1847.96 666.519L1819.17 611.498H1814.85V666.519H1774.54V517.328H1838.09C1849.74 517.328 1859.61 519.444 1867.7 523.676C1875.79 527.768 1881.89 533.481 1886.01 540.817C1890.12 548.012 1892.18 556.124 1892.18 565.154C1892.18 575.311 1889.44 584.27 1883.95 592.029C1878.6 599.647 1870.72 605.079 1860.3 608.324L1893 666.519H1847.96ZM1814.85 583.141H1834.8C1840.28 583.141 1844.4 581.801 1847.14 579.12C1849.88 576.44 1851.25 572.56 1851.25 567.481C1851.25 562.685 1849.81 558.946 1846.93 556.266C1844.19 553.444 1840.15 552.033 1834.8 552.033H1814.85V583.141Z" fill="currentColor" />
  <path fill-rule="evenodd" clip-rule="evenodd" d="M668 274.678V72V0H596H209.378L190.086 72H596V255.386L668 274.678ZM112.44 72H72V596H596V333.031L668 352.324V596V668H596H72H0V596V72V0H72H131.733L112.44 72Z" fill="currentColor" />
  <path d="M332.922 542C292.495 542 258.806 536.415 231.854 525.244C205.288 513.689 185.267 498.859 171.791 480.756C158.7 462.267 151.77 442.815 151 422.4C151 418.933 152.155 416.044 154.465 413.733C156.775 411.422 159.663 410.267 163.128 410.267H254.956C260.346 410.267 264.581 411.23 267.661 413.156C270.742 414.696 274.014 417.007 277.479 420.089C280.945 424.326 284.987 428.37 289.608 432.222C294.228 435.689 300.196 438.578 307.511 440.889C314.826 442.815 323.297 443.778 332.922 443.778C350.633 443.778 364.302 441.467 373.927 436.844C383.553 431.837 388.366 425.096 388.366 416.622C388.366 410.074 385.67 404.681 380.28 400.444C375.275 396.207 366.612 392.356 354.291 388.889C341.97 385.422 325.222 381.763 304.046 377.911C274.399 372.904 248.795 365.585 227.234 355.956C205.673 345.941 189.117 332.652 177.566 316.089C166.401 299.141 160.818 278.341 160.818 253.689C160.818 228.652 167.748 206.504 181.609 187.244C195.855 167.985 215.491 152.963 240.517 142.178C265.929 131.393 295.383 126 328.88 126C356.601 126 381.05 129.659 402.226 136.978C423.787 144.296 441.883 153.926 456.514 165.867C471.145 177.422 482.311 189.941 490.011 203.422C497.712 216.904 501.754 229.807 502.139 242.133C502.139 245.6 500.792 248.681 498.097 251.378C495.786 253.689 493.091 254.844 490.011 254.844H393.563C388.943 254.844 384.9 254.074 381.435 252.533C378.355 250.993 375.467 248.489 372.772 245.022C370.847 239.63 366.034 234.815 358.334 230.578C350.633 226.341 340.815 224.222 328.88 224.222C315.789 224.222 305.778 226.533 298.848 231.156C291.918 235.393 288.453 241.748 288.453 250.222C288.453 256 290.57 261.007 294.805 265.244C299.041 269.481 306.549 273.333 317.329 276.8C328.11 279.881 343.126 283.348 362.377 287.2C398.954 292.593 428.408 300.296 450.739 310.311C473.455 320.326 490.011 333.422 500.407 349.6C510.802 365.778 516 386 516 410.267C516 437.615 508.107 461.111 492.321 480.756C476.535 500.4 454.782 515.615 427.06 526.4C399.724 536.8 368.344 542 332.922 542Z" fill="currentColor" />
  <line x1="738" y1="180.5" x2="1893" y2="180.5" stroke="currentColor" stroke-width="65" />
</svg>
  