<svg width="98" height="143" viewBox="0 0 98 143" fill="none" xmlns="http://www.w3.org/2000/svg">
<rect width="98" height="143" fill="white"/>
<path d="M89 45.5143V9H30.7277L29.1232 15.0328H83.012V43.8978L89 45.5143Z" fill="#212121"/>
<path d="M23.1719 15.0328H14.988V83.5656H83.012V49.8936L89 51.5101V89.5985H9V9H24.7764L23.1719 15.0328Z" fill="#212121"/>
<path d="M30.018 78.86C27.503 78.86 25.4072 78.5101 23.7305 77.8103C22.0778 77.0864 20.8323 76.1573 19.994 75.0232C19.1796 73.8649 18.7485 72.6462 18.7006 71.3673C18.7006 71.1501 18.7725 70.9691 18.9162 70.8243C19.0599 70.6795 19.2395 70.6071 19.4551 70.6071H25.1677C25.503 70.6071 25.7665 70.6675 25.9581 70.7881C26.1497 70.8847 26.3533 71.0294 26.5689 71.2225C26.7844 71.4879 27.0359 71.7413 27.3234 71.9826C27.6108 72.1998 27.982 72.3808 28.4371 72.5256C28.8922 72.6462 29.4192 72.7066 30.018 72.7066C31.1198 72.7066 31.9701 72.5618 32.5689 72.2722C33.1677 71.9585 33.4671 71.5362 33.4671 71.0053C33.4671 70.5951 33.2994 70.2572 32.9641 69.9918C32.6527 69.7263 32.1138 69.485 31.3473 69.2679C30.5808 69.0507 29.5389 68.8214 28.2216 68.5801C26.3772 68.2664 24.7844 67.8079 23.4431 67.2046C22.1018 66.5772 21.0719 65.7447 20.3533 64.707C19.6587 63.6453 19.3114 62.3422 19.3114 60.7978C19.3114 59.2292 19.7425 57.8417 20.6048 56.6351C21.491 55.4286 22.7126 54.4875 24.2695 53.8118C25.8503 53.1361 27.6826 52.7983 29.7665 52.7983C31.491 52.7983 33.012 53.0275 34.3293 53.486C35.6707 53.9445 36.7964 54.5478 37.7066 55.2959C38.6168 56.0198 39.3114 56.8041 39.7904 57.6487C40.2695 58.4932 40.521 59.3016 40.5449 60.0738C40.5449 60.291 40.4611 60.4841 40.2934 60.653C40.1497 60.7978 39.982 60.8702 39.7904 60.8702H33.7904C33.503 60.8702 33.2515 60.8219 33.0359 60.7254C32.8443 60.6289 32.6647 60.472 32.497 60.2548C32.3772 59.917 32.0778 59.6153 31.5988 59.3499C31.1198 59.0845 30.509 58.9517 29.7665 58.9517C28.9521 58.9517 28.3293 59.0965 27.8982 59.3861C27.4671 59.6515 27.2515 60.0497 27.2515 60.5806C27.2515 60.9426 27.3832 61.2563 27.6467 61.5217C27.9102 61.7872 28.3772 62.0285 29.0479 62.2457C29.7186 62.4387 30.6527 62.6559 31.8503 62.8972C34.1257 63.235 35.9581 63.7177 37.3473 64.3451C38.7605 64.9725 39.7904 65.793 40.4371 66.8065C41.0838 67.82 41.4072 69.0869 41.4072 70.6071C41.4072 72.3205 40.9162 73.7925 39.9341 75.0232C38.9521 76.2539 37.5988 77.207 35.8743 77.8827C34.1737 78.5343 32.2216 78.86 30.018 78.86Z" fill="#212121"/>
<path fill-rule="evenodd" clip-rule="evenodd" d="M47.0367 78.4981C46.7972 78.4981 46.5816 78.4136 46.39 78.2447C46.1984 78.0516 46.1025 77.8224 46.1025 77.557V54.1014C46.1025 53.8359 46.1984 53.6187 46.39 53.4498C46.5816 53.2568 46.7972 53.1602 47.0367 53.1602H58.4978C60.6774 53.1602 62.4618 53.4498 63.851 54.029C65.2403 54.6081 66.2702 55.4406 66.9409 56.5265C67.6115 57.6124 67.9469 58.9517 67.9469 60.5444C67.9469 61.3649 67.7792 62.1009 67.4439 62.7524C67.1325 63.3798 66.7492 63.9107 66.2942 64.3451C65.8391 64.7553 65.4079 65.0569 65.0007 65.25C65.9349 65.6602 66.7493 66.36 67.4439 67.3494C68.1385 68.3147 68.4858 69.4247 68.4858 70.6795C68.4858 72.3687 68.1025 73.7925 67.3361 74.9508C66.5936 76.1091 65.5037 76.9899 64.0666 77.5931C62.6534 78.1964 60.9169 78.4981 58.857 78.4981H47.0367ZM53.8271 73.0323H58.0307C58.8451 73.0323 59.4439 72.791 59.8271 72.3084C60.2103 71.8016 60.4019 71.2466 60.4019 70.6433C60.4019 70.0159 60.1984 69.473 59.7912 69.0145C59.384 68.5319 58.7972 68.2905 58.0307 68.2905H53.8271V73.0323ZM53.8271 62.9696H57.6714C58.4379 62.9696 59.0008 62.7524 59.36 62.3181C59.7193 61.8837 59.899 61.3769 59.899 60.7978C59.899 60.2186 59.7193 59.7119 59.36 59.2775C59.0008 58.8431 58.4379 58.626 57.6714 58.626H53.8271V62.9696Z" fill="#212121"/>
<path fill-rule="evenodd" clip-rule="evenodd" d="M32.8293 106.973C31.8666 106.973 30.9816 106.748 30.1744 106.297C29.3673 105.837 28.7254 105.206 28.2489 104.403C27.7821 103.59 27.5487 102.675 27.5487 101.657C27.5487 100.639 27.7821 99.728 28.2489 98.9252C28.7254 98.1126 29.3673 97.4811 30.1744 97.0308C30.9816 96.5804 31.8666 96.3552 32.8293 96.3552C33.8018 96.3552 34.6868 96.5804 35.4842 97.0308C36.2914 97.4811 36.9283 98.1126 37.3951 98.9252C37.8619 99.728 38.0953 100.639 38.0953 101.657C38.0953 102.675 37.8619 103.59 37.3951 104.403C36.9283 105.206 36.2914 105.837 35.4842 106.297C34.677 106.748 33.7921 106.973 32.8293 106.973ZM32.8293 104.3C33.5587 104.3 34.1325 104.06 34.5506 103.581C34.9785 103.101 35.1925 102.46 35.1925 101.657C35.1925 100.834 34.9785 100.188 34.5506 99.7182C34.1325 99.2385 33.5587 98.9986 32.8293 98.9986C32.0902 98.9986 31.5116 99.2385 31.0934 99.7182C30.6753 100.188 30.4662 100.834 30.4662 101.657C30.4662 102.469 30.6753 103.116 31.0934 103.595C31.5116 104.065 32.0902 104.3 32.8293 104.3Z" fill="#212121"/>
<path d="M17.0506 98.8077V96.5168H10.0778V106.87H12.937V102.817H15.9711V100.629H12.937V98.8077H17.0506Z" fill="#212121"/>
<path fill-rule="evenodd" clip-rule="evenodd" d="M21.4201 103.052L23.4624 106.87H26.657L24.3376 102.832C25.0767 102.606 25.6359 102.229 26.0151 101.701C26.4041 101.162 26.5986 100.541 26.5986 99.8357C26.5986 99.2091 26.4527 98.6462 26.161 98.1469C25.8693 97.6378 25.4365 97.2412 24.8627 96.9573C24.289 96.6636 23.5888 96.5168 22.7622 96.5168H18.2547V106.87H21.1138V103.052H21.4201ZM22.5288 101.084H21.1138V98.9252H22.5288C22.908 98.9252 23.1949 99.0231 23.3894 99.2189C23.5936 99.4049 23.6957 99.6644 23.6957 99.9973C23.6957 100.35 23.5985 100.619 23.404 100.805C23.2095 100.991 22.9178 101.084 22.5288 101.084Z" fill="#212121"/>
<path d="M46.047 106.87H48.9061V96.5168H46.047V102.376L42.2397 96.5168H39.3806V106.87H42.2397V101.084L46.047 106.87Z" fill="#212121"/>
<path d="M58.2806 96.5168V98.8077H55.5382V106.87H52.6791V98.8077H49.9658V96.5168H58.2806Z" fill="#212121"/>
<path d="M62.1975 100.511V98.8224H65.9172V96.5168H59.3384V106.87H65.9172V104.565H62.1975V102.699H65.4796V100.511H62.1975Z" fill="#212121"/>
<path d="M76.8555 106.87H73.9964L70.1892 101.084V106.87H67.33V96.5168H70.1892L73.9964 102.376V96.5168H76.8555V106.87Z" fill="#212121"/>
<path fill-rule="evenodd" clip-rule="evenodd" d="M85.384 97.1776C84.5768 96.737 83.6335 96.5168 82.554 96.5168H78.4842V106.87H82.554C83.6238 106.87 84.5622 106.65 85.3694 106.209C86.1863 105.759 86.8135 105.142 87.2511 104.359C87.6985 103.576 87.9222 102.685 87.9222 101.686C87.9222 100.678 87.7033 99.7819 87.2657 98.9986C86.8281 98.2154 86.2009 97.6084 85.384 97.1776ZM84.3045 103.639C83.828 104.099 83.1716 104.33 82.3352 104.33H81.3433V99.0133H82.3352C83.1716 99.0133 83.828 99.2483 84.3045 99.7182C84.781 100.178 85.0193 100.834 85.0193 101.686C85.0193 102.528 84.781 103.179 84.3045 103.639Z" fill="#212121"/>
<path fill-rule="evenodd" clip-rule="evenodd" d="M57.3072 122.296C56.3923 122.296 55.5514 122.076 54.7844 121.636C54.0175 121.186 53.4076 120.569 52.9548 119.785C52.5112 118.991 52.2895 118.096 52.2895 117.101C52.2895 116.106 52.5112 115.216 52.9548 114.431C53.4076 113.637 54.0175 113.02 54.7844 112.58C55.5514 112.14 56.3923 111.92 57.3072 111.92C58.2312 111.92 59.0721 112.14 59.8299 112.58C60.5969 113.02 61.2021 113.637 61.6457 114.431C62.0892 115.216 62.311 116.106 62.311 117.101C62.311 118.096 62.0892 118.991 61.6457 119.785C61.2021 120.569 60.5969 121.186 59.8299 121.636C59.0629 122.076 58.222 122.296 57.3072 122.296ZM57.3072 119.684C58.0002 119.684 58.5454 119.45 58.9428 118.981C59.3494 118.512 59.5527 117.886 59.5527 117.101C59.5527 116.297 59.3494 115.666 58.9428 115.206C58.5454 114.738 58.0002 114.503 57.3072 114.503C56.6049 114.503 56.055 114.738 55.6577 115.206C55.2603 115.666 55.0617 116.297 55.0617 117.101C55.0617 117.895 55.2603 118.527 55.6577 118.995C56.055 119.455 56.6049 119.684 57.3072 119.684Z" fill="#212121"/>
<path fill-rule="evenodd" clip-rule="evenodd" d="M13.9451 112.078C14.9708 112.078 15.8672 112.293 16.6341 112.724C17.4103 113.145 18.0064 113.738 18.4222 114.503C18.838 115.269 19.046 116.144 19.046 117.13C19.046 118.106 18.8334 118.976 18.4083 119.742C17.9925 120.507 17.3965 121.11 16.6203 121.55C15.8533 121.981 14.9616 122.196 13.9451 122.196H10.0778V112.078H13.9451ZM13.7372 119.713C14.5319 119.713 15.1556 119.488 15.6084 119.038C16.0612 118.589 16.2876 117.952 16.2876 117.13C16.2876 116.297 16.0612 115.656 15.6084 115.206C15.1556 114.747 14.5319 114.518 13.7372 114.518H12.7946V119.713H13.7372Z" fill="#212121"/>
<path d="M22.9874 114.331V115.981H26.1061V118.12H22.9874V119.943H26.5219V122.196H20.2706V112.078H26.5219V114.331H22.9874Z" fill="#212121"/>
<path d="M34.0049 122.196L37.3731 112.078H34.4761L32.2722 119.383L30.0545 112.078H27.1436L30.5257 122.196H34.0049Z" fill="#212121"/>
<path d="M40.9364 114.331V115.981H44.0551V118.12H40.9364V119.943H44.4709V122.196H38.2196V112.078H44.4709V114.331H40.9364Z" fill="#212121"/>
<path d="M51.5658 120.043H48.5302V112.078H45.8134V122.196H51.5658V120.043Z" fill="#212121"/>
<path fill-rule="evenodd" clip-rule="evenodd" d="M70.8371 117.13C71.1143 116.623 71.2529 116.063 71.2529 115.45C71.2529 114.79 71.1143 114.207 70.8371 113.7C70.5599 113.192 70.144 112.795 69.5896 112.508C69.0444 112.221 68.3791 112.078 67.5936 112.078H63.5323V122.196H66.2491V118.78H67.5936C68.3883 118.78 69.0582 118.632 69.6035 118.335C70.1579 118.029 70.5691 117.627 70.8371 117.13ZM68.4807 115.45C68.4807 116.178 68.0972 116.541 67.3302 116.541H66.2491V114.345H67.3302C68.0972 114.345 68.4807 114.714 68.4807 115.45Z" fill="#212121"/>
<path d="M75.0611 114.331V115.981H78.1799V118.12H75.0611V119.943H78.5957V122.196H72.3444V112.078H78.5957V114.331H75.0611Z" fill="#212121"/>
<path fill-rule="evenodd" clip-rule="evenodd" d="M82.946 118.464L84.8866 122.196H87.9221L85.7182 118.249C86.4205 118.029 86.9519 117.661 87.3123 117.144C87.6819 116.618 87.8667 116.01 87.8667 115.321C87.8667 114.709 87.7281 114.159 87.4509 113.671C87.1737 113.173 86.7624 112.786 86.2172 112.508C85.672 112.221 85.0067 112.078 84.2212 112.078H79.9382V122.196H82.6549V118.464H82.946ZM83.9995 116.541H82.6549V114.431H83.9995C84.3598 114.431 84.6325 114.527 84.8173 114.719C85.0113 114.9 85.1084 115.154 85.1084 115.479C85.1084 115.824 85.0159 116.087 84.8311 116.269C84.6463 116.45 84.3691 116.541 83.9995 116.541Z" fill="#212121"/>
<path d="M89 134H9L9 127.967L89 127.967V134Z" fill="#212121"/>
</svg>
