<svg width="895" height="314" viewBox="0 0 895 314" fill="none" xmlns="http://www.w3.org/2000/svg">
<path d="M11 11H303V110H884V206H789V303H11V11Z" fill="white"/>
<path d="M53.3473 53.3473H69.2692L76.8648 25H25V288H288V163.714L259.653 156.119V259.653H53.3473V53.3473Z" fill="#212121"/>
<path d="M288 133.144L259.653 125.549V53.3473H99.8392L107.435 25H288V133.144Z" fill="#212121"/>
<path d="M156.076 238.392C140.159 238.392 126.895 236.193 116.284 231.795C105.824 227.246 97.9419 221.407 92.6363 214.28C87.4824 207 84.7538 199.342 84.4506 191.304C84.4506 189.939 84.9054 188.802 85.8149 187.892C86.7244 186.982 87.8613 186.527 89.2256 186.527H125.379C127.501 186.527 129.169 186.906 130.382 187.665C131.594 188.271 132.883 189.181 134.247 190.394C135.611 192.062 137.203 193.655 139.022 195.171C140.841 196.536 143.191 197.674 146.071 198.583C148.951 199.342 152.286 199.721 156.076 199.721C163.049 199.721 168.43 198.811 172.22 196.991C176.01 195.02 177.904 192.366 177.904 189.029C177.904 186.451 176.843 184.328 174.721 182.66C172.75 180.992 169.34 179.475 164.489 178.11C159.638 176.746 153.044 175.305 144.707 173.788C133.034 171.817 122.954 168.935 114.465 165.144C105.976 161.201 99.4578 155.969 94.9101 149.448C90.5141 142.775 88.3161 134.586 88.3161 124.881C88.3161 115.023 91.0447 106.303 96.5018 98.7205C102.111 91.1379 109.842 85.2234 119.695 80.9772C129.7 76.7309 141.296 74.6078 154.484 74.6078C165.398 74.6078 175.024 76.0485 183.362 78.9299C191.85 81.8113 198.975 85.6026 204.735 90.3038C210.496 94.8534 214.892 99.7821 217.924 105.09C220.955 110.398 222.547 115.478 222.699 120.331C222.699 121.696 222.168 122.909 221.107 123.971C220.197 124.881 219.136 125.335 217.924 125.335H179.951C178.132 125.335 176.54 125.032 175.176 124.426C173.963 123.819 172.826 122.833 171.765 121.468C171.007 119.345 169.112 117.45 166.081 115.781C163.049 114.113 159.183 113.279 154.484 113.279C149.33 113.279 145.389 114.189 142.66 116.009C139.932 117.677 138.567 120.179 138.567 123.516C138.567 125.79 139.401 127.762 141.069 129.43C142.736 131.098 145.692 132.615 149.936 133.98C154.181 135.193 160.093 136.558 167.672 138.074C182.073 140.197 193.67 143.23 202.462 147.173C211.405 151.116 217.924 156.273 222.016 162.642C226.109 169.011 228.156 176.973 228.156 186.527C228.156 197.294 225.048 206.545 218.833 214.28C212.618 222.014 204.053 228.004 193.139 232.25C182.376 236.345 170.022 238.392 156.076 238.392Z" fill="#212121"/>
<path fill-rule="evenodd" clip-rule="evenodd" d="M474.116 192.96C467.844 192.96 462.34 192 457.604 190.08C452.932 188.16 449.22 185.28 446.468 181.44C443.78 177.536 442.308 172.736 442.052 167.04C441.988 164.416 441.956 161.632 441.956 158.688C441.956 155.744 441.988 152.896 442.052 150.144C442.308 144.512 443.78 139.744 446.468 135.84C449.156 131.936 452.868 128.96 457.604 126.912C462.34 124.864 467.844 123.84 474.116 123.84C480.388 123.84 485.892 124.864 490.628 126.912C495.364 128.96 499.076 131.936 501.764 135.84C504.516 139.744 505.988 144.512 506.18 150.144C506.308 152.896 506.372 155.744 506.372 158.688C506.372 161.632 506.308 164.416 506.18 167.04C505.924 172.736 504.42 177.536 501.668 181.44C498.98 185.28 495.268 188.16 490.532 190.08C485.86 192 480.388 192.96 474.116 192.96ZM474.116 174.24C476.228 174.24 477.924 173.632 479.204 172.416C480.484 171.136 481.156 169.152 481.22 166.464C481.348 163.712 481.412 160.992 481.412 158.304C481.412 155.616 481.348 152.96 481.22 150.336C481.156 148.544 480.804 147.072 480.164 145.92C479.588 144.768 478.788 143.936 477.764 143.424C476.74 142.848 475.524 142.56 474.116 142.56C472.772 142.56 471.556 142.848 470.468 143.424C469.444 143.936 468.612 144.768 467.972 145.92C467.396 147.072 467.076 148.544 467.012 150.336C466.948 152.96 466.916 155.616 466.916 158.304C466.916 160.992 466.948 163.712 467.012 166.464C467.14 169.152 467.812 171.136 469.028 172.416C470.308 173.632 472.004 174.24 474.116 174.24Z" fill="#212121"/>
<path fill-rule="evenodd" clip-rule="evenodd" d="M308.048 191.232C308.56 191.744 309.168 192 309.872 192H329.648C330.352 192 330.96 191.744 331.472 191.232C331.984 190.72 332.24 190.112 332.24 189.408V171.072H338.96C344.784 171.072 349.84 170.304 354.128 168.768C358.48 167.168 361.84 164.704 364.208 161.376C366.64 157.984 367.856 153.632 367.856 148.32C367.856 143.008 366.64 138.624 364.208 135.168C361.84 131.648 358.48 129.056 354.128 127.392C349.84 125.664 344.784 124.8 338.96 124.8H309.872C309.168 124.8 308.56 125.056 308.048 125.568C307.536 126.08 307.28 126.688 307.28 127.392V189.408C307.28 190.112 307.536 190.72 308.048 191.232ZM338.48 153.312H331.76V142.656H338.48C340.208 142.656 341.36 143.264 341.936 144.48C342.576 145.696 342.896 146.912 342.896 148.128C342.896 149.984 342.416 151.328 341.456 152.16C340.496 152.928 339.504 153.312 338.48 153.312Z" fill="#212121"/>
<path fill-rule="evenodd" clip-rule="evenodd" d="M375.736 191.232C376.247 191.744 376.855 192 377.56 192H396.375C397.079 192 397.688 191.744 398.199 191.232C398.711 190.72 398.967 190.112 398.967 189.408V171.072H402.904L411.159 189.408C411.352 189.856 411.768 190.4 412.408 191.04C413.047 191.68 414.008 192 415.288 192H434.967C435.543 192 436.023 191.808 436.408 191.424C436.855 190.976 437.079 190.464 437.079 189.888C437.079 189.568 436.983 189.216 436.792 188.832L424.984 166.944C427.992 165.024 430.456 162.496 432.375 159.36C434.359 156.16 435.352 152.416 435.352 148.128C435.352 140.896 432.759 135.2 427.576 131.04C422.392 126.88 415.191 124.8 405.975 124.8H377.56C376.855 124.8 376.247 125.056 375.736 125.568C375.224 126.08 374.967 126.688 374.967 127.392V189.408C374.967 190.112 375.224 190.72 375.736 191.232ZM405.975 152.832H398.967V142.656H405.975C407.576 142.656 408.695 143.232 409.336 144.384C410.039 145.472 410.392 146.656 410.392 147.936C410.392 149.216 410.008 150.368 409.24 151.392C408.535 152.352 407.448 152.832 405.975 152.832Z" fill="#212121"/>
<path d="M530.022 191.232C530.534 191.744 531.142 192 531.846 192H551.046C551.75 192 552.358 191.744 552.87 191.232C553.382 190.72 553.638 190.112 553.638 189.408V145.44H569.574C570.278 145.44 570.886 145.184 571.398 144.672C571.91 144.16 572.166 143.552 572.166 142.848V127.392C572.166 126.688 571.91 126.08 571.398 125.568C570.886 125.056 570.278 124.8 569.574 124.8H513.318C512.614 124.8 512.006 125.056 511.494 125.568C510.982 126.08 510.726 126.688 510.726 127.392V142.848C510.726 143.552 510.982 144.16 511.494 144.672C512.006 145.184 512.614 145.44 513.318 145.44H529.254V189.408C529.254 190.112 529.51 190.72 530.022 191.232Z" fill="#212121"/>
<path d="M581.653 192C580.949 192 580.341 191.744 579.829 191.232C579.317 190.72 579.061 190.112 579.061 189.408V127.392C579.061 126.688 579.317 126.08 579.829 125.568C580.341 125.056 580.949 124.8 581.653 124.8H630.037C630.741 124.8 631.349 125.056 631.861 125.568C632.373 126.08 632.629 126.688 632.629 127.392V141.984C632.629 142.688 632.373 143.296 631.861 143.808C631.349 144.32 630.741 144.576 630.037 144.576H602.581V151.68H628.117C628.821 151.68 629.429 151.936 629.941 152.448C630.453 152.96 630.709 153.568 630.709 154.272V168.768C630.709 169.472 630.453 170.08 629.941 170.592C629.429 171.104 628.821 171.36 628.117 171.36H602.581V189.408C602.581 190.112 602.325 190.72 601.813 191.232C601.301 191.744 600.693 192 599.989 192H581.653Z" fill="#212121"/>
<path fill-rule="evenodd" clip-rule="evenodd" d="M654.479 190.08C659.215 192 664.719 192.96 670.991 192.96C677.263 192.96 682.735 192 687.407 190.08C692.143 188.16 695.855 185.28 698.543 181.44C701.295 177.536 702.799 172.736 703.055 167.04C703.183 164.416 703.247 161.632 703.247 158.688C703.247 155.744 703.183 152.896 703.055 150.144C702.863 144.512 701.391 139.744 698.639 135.84C695.951 131.936 692.239 128.96 687.503 126.912C682.767 124.864 677.263 123.84 670.991 123.84C664.719 123.84 659.215 124.864 654.479 126.912C649.743 128.96 646.031 131.936 643.343 135.84C640.655 139.744 639.183 144.512 638.927 150.144C638.863 152.896 638.831 155.744 638.831 158.688C638.831 161.632 638.863 164.416 638.927 167.04C639.183 172.736 640.655 177.536 643.343 181.44C646.095 185.28 649.807 188.16 654.479 190.08ZM676.079 172.416C674.799 173.632 673.103 174.24 670.991 174.24C668.879 174.24 667.183 173.632 665.903 172.416C664.687 171.136 664.015 169.152 663.887 166.464C663.823 163.712 663.791 160.992 663.791 158.304C663.791 155.616 663.823 152.96 663.887 150.336C663.951 148.544 664.271 147.072 664.847 145.92C665.487 144.768 666.319 143.936 667.343 143.424C668.431 142.848 669.647 142.56 670.991 142.56C672.399 142.56 673.615 142.848 674.639 143.424C675.663 143.936 676.463 144.768 677.039 145.92C677.679 147.072 678.031 148.544 678.095 150.336C678.223 152.96 678.287 155.616 678.287 158.304C678.287 160.992 678.223 163.712 678.095 166.464C678.031 169.152 677.359 171.136 676.079 172.416Z" fill="#212121"/>
<path d="M714.497 192C713.793 192 713.185 191.744 712.673 191.232C712.161 190.72 711.905 190.112 711.905 189.408V127.392C711.905 126.688 712.161 126.08 712.673 125.568C713.185 125.056 713.793 124.8 714.497 124.8H733.697C734.401 124.8 735.009 125.056 735.521 125.568C736.033 126.08 736.289 126.688 736.289 127.392V172.32H762.881C763.585 172.32 764.193 172.576 764.705 173.088C765.217 173.6 765.473 174.208 765.473 174.912V189.408C765.473 190.112 765.217 190.72 764.705 191.232C764.193 191.744 763.585 192 762.881 192H714.497Z" fill="#212121"/>
<path d="M772.767 191.232C773.279 191.744 773.887 192 774.591 192H794.175C794.879 192 795.487 191.744 795.999 191.232C796.511 190.72 796.767 190.112 796.767 189.408V127.392C796.767 126.688 796.511 126.08 795.999 125.568C795.487 125.056 794.879 124.8 794.175 124.8H774.591C773.887 124.8 773.279 125.056 772.767 125.568C772.255 126.08 771.999 126.688 771.999 127.392V189.408C771.999 190.112 772.255 190.72 772.767 191.232Z" fill="#212121"/>
<path fill-rule="evenodd" clip-rule="evenodd" d="M837.678 192.96C831.406 192.96 825.902 192 821.167 190.08C816.494 188.16 812.782 185.28 810.031 181.44C807.342 177.536 805.87 172.736 805.615 167.04C805.55 164.416 805.518 161.632 805.518 158.688C805.518 155.744 805.55 152.896 805.615 150.144C805.87 144.512 807.342 139.744 810.031 135.84C812.719 131.936 816.43 128.96 821.167 126.912C825.902 124.864 831.406 123.84 837.678 123.84C843.951 123.84 849.455 124.864 854.191 126.912C858.927 128.96 862.638 131.936 865.327 135.84C868.078 139.744 869.551 144.512 869.743 150.144C869.871 152.896 869.934 155.744 869.934 158.688C869.934 161.632 869.871 164.416 869.743 167.04C869.487 172.736 867.982 177.536 865.23 181.44C862.542 185.28 858.831 188.16 854.094 190.08C849.422 192 843.951 192.96 837.678 192.96ZM837.678 174.24C839.791 174.24 841.487 173.632 842.766 172.416C844.047 171.136 844.719 169.152 844.782 166.464C844.911 163.712 844.974 160.992 844.974 158.304C844.974 155.616 844.911 152.96 844.782 150.336C844.719 148.544 844.366 147.072 843.726 145.92C843.15 144.768 842.351 143.936 841.327 143.424C840.302 142.848 839.086 142.56 837.678 142.56C836.334 142.56 835.118 142.848 834.031 143.424C833.006 143.936 832.174 144.768 831.535 145.92C830.958 147.072 830.638 148.544 830.574 150.336C830.51 152.96 830.479 155.616 830.479 158.304C830.479 160.992 830.51 163.712 830.574 166.464C830.703 169.152 831.375 171.136 832.59 172.416C833.87 173.632 835.567 174.24 837.678 174.24Z" fill="#212121"/>
<path fill-rule="evenodd" clip-rule="evenodd" d="M308.048 287.232C308.56 287.744 309.168 288 309.872 288H329.648C330.352 288 330.96 287.744 331.472 287.232C331.984 286.72 332.24 286.112 332.24 285.408V267.072H338.96C344.784 267.072 349.84 266.304 354.128 264.768C358.48 263.168 361.84 260.704 364.208 257.376C366.64 253.984 367.856 249.632 367.856 244.32C367.856 239.008 366.64 234.624 364.208 231.168C361.84 227.648 358.48 225.056 354.128 223.392C349.84 221.664 344.784 220.8 338.96 220.8H309.872C309.168 220.8 308.56 221.056 308.048 221.568C307.536 222.08 307.28 222.688 307.28 223.392V285.408C307.28 286.112 307.536 286.72 308.048 287.232ZM338.48 249.312H331.76V238.656H338.48C340.208 238.656 341.36 239.264 341.936 240.48C342.576 241.696 342.896 242.912 342.896 244.128C342.896 245.984 342.416 247.328 341.456 248.16C340.496 248.928 339.504 249.312 338.48 249.312Z" fill="#212121"/>
<path fill-rule="evenodd" clip-rule="evenodd" d="M377.56 288C376.855 288 376.247 287.744 375.736 287.232C375.224 286.72 374.967 286.112 374.967 285.408V223.392C374.967 222.688 375.224 222.08 375.736 221.568C376.247 221.056 376.855 220.8 377.56 220.8H405.975C415.191 220.8 422.392 222.88 427.576 227.04C432.759 231.2 435.352 236.896 435.352 244.128C435.352 248.416 434.359 252.16 432.375 255.36C430.456 258.496 427.992 261.024 424.984 262.944L436.792 284.832C436.983 285.216 437.079 285.568 437.079 285.888C437.079 286.464 436.855 286.976 436.408 287.424C436.023 287.808 435.543 288 434.967 288H415.288C414.008 288 413.047 287.68 412.408 287.04C411.768 286.4 411.352 285.856 411.159 285.408L402.904 267.072H398.967V285.408C398.967 286.112 398.711 286.72 398.199 287.232C397.688 287.744 397.079 288 396.375 288H377.56ZM398.967 248.832H405.975C407.448 248.832 408.535 248.352 409.24 247.392C410.008 246.368 410.392 245.216 410.392 243.936C410.392 242.656 410.039 241.472 409.336 240.384C408.695 239.232 407.576 238.656 405.975 238.656H398.967V248.832Z" fill="#212121"/>
<path fill-rule="evenodd" clip-rule="evenodd" d="M457.604 286.08C462.34 288 467.844 288.96 474.116 288.96C480.388 288.96 485.86 288 490.532 286.08C495.268 284.16 498.98 281.28 501.668 277.44C504.42 273.536 505.924 268.736 506.18 263.04C506.308 260.416 506.372 257.632 506.372 254.688C506.372 251.744 506.308 248.896 506.18 246.144C505.988 240.512 504.516 235.744 501.764 231.84C499.076 227.936 495.364 224.96 490.628 222.912C485.892 220.864 480.388 219.84 474.116 219.84C467.844 219.84 462.34 220.864 457.604 222.912C452.868 224.96 449.156 227.936 446.468 231.84C443.78 235.744 442.308 240.512 442.052 246.144C441.988 248.896 441.956 251.744 441.956 254.688C441.956 257.632 441.988 260.416 442.052 263.04C442.308 268.736 443.78 273.536 446.468 277.44C449.22 281.28 452.932 284.16 457.604 286.08ZM479.204 268.416C477.924 269.632 476.228 270.24 474.116 270.24C472.004 270.24 470.308 269.632 469.028 268.416C467.812 267.136 467.14 265.152 467.012 262.464C466.948 259.712 466.916 256.992 466.916 254.304C466.916 251.616 466.948 248.96 467.012 246.336C467.076 244.544 467.396 243.072 467.972 241.92C468.612 240.768 469.444 239.936 470.468 239.424C471.556 238.848 472.772 238.56 474.116 238.56C475.524 238.56 476.74 238.848 477.764 239.424C478.788 239.936 479.588 240.768 480.164 241.92C480.804 243.072 481.156 244.544 481.22 246.336C481.348 248.96 481.412 251.616 481.412 254.304C481.412 256.992 481.348 259.712 481.22 262.464C481.156 265.152 480.484 267.136 479.204 268.416Z" fill="#212121"/>
<path d="M541.142 288.96C537.174 288.96 533.366 288.448 529.718 287.424C526.134 286.4 522.902 284.896 520.022 282.912C517.206 280.864 514.966 278.4 513.302 275.52C511.638 272.576 510.774 269.216 510.71 265.44C510.71 264.864 510.902 264.384 511.286 264C511.734 263.552 512.246 263.328 512.822 263.328H532.406C533.494 263.328 534.294 263.584 534.806 264.096C535.382 264.544 535.894 265.312 536.342 266.4C536.79 267.232 537.238 267.936 537.686 268.512C538.134 269.088 538.678 269.536 539.318 269.856C540.022 270.112 540.886 270.24 541.91 270.24C543.638 270.24 545.014 269.696 546.038 268.608C547.062 267.456 547.574 265.408 547.574 262.464V240.288H519.062C518.358 240.288 517.75 240.032 517.238 239.52C516.726 239.008 516.47 238.4 516.47 237.696V223.392C516.47 222.688 516.726 222.08 517.238 221.568C517.75 221.056 518.358 220.8 519.062 220.8H569.846C570.55 220.8 571.158 221.056 571.67 221.568C572.182 222.08 572.438 222.688 572.438 223.392V263.232C572.438 269.12 571.03 273.984 568.214 277.824C565.462 281.6 561.718 284.416 556.982 286.272C552.246 288.064 546.966 288.96 541.142 288.96Z" fill="#212121"/>
<path d="M583.204 287.232C583.716 287.744 584.324 288 585.028 288H635.044C635.748 288 636.356 287.744 636.868 287.232C637.38 286.72 637.636 286.112 637.636 285.408V271.872C637.636 271.168 637.38 270.56 636.868 270.048C636.356 269.536 635.748 269.28 635.044 269.28H605.476V263.232H632.164C632.868 263.232 633.476 262.976 633.988 262.464C634.5 261.952 634.756 261.344 634.756 260.64V248.16C634.756 247.456 634.5 246.848 633.988 246.336C633.476 245.824 632.868 245.568 632.164 245.568H605.476V239.52H634.276C634.98 239.52 635.588 239.264 636.1 238.752C636.612 238.24 636.868 237.632 636.868 236.928V223.392C636.868 222.688 636.612 222.08 636.1 221.568C635.588 221.056 634.98 220.8 634.276 220.8H585.028C584.324 220.8 583.716 221.056 583.204 221.568C582.692 222.08 582.436 222.688 582.436 223.392V285.408C582.436 286.112 582.692 286.72 583.204 287.232Z" fill="#212121"/>
<path d="M676.431 288.96C670.287 288.96 664.847 288.064 660.111 286.272C655.375 284.48 651.599 281.664 648.783 277.824C646.031 273.984 644.527 269.024 644.271 262.944C644.207 260.32 644.175 257.504 644.175 254.496C644.175 251.488 644.207 248.608 644.271 245.856C644.527 239.904 646.063 235.008 648.879 231.168C651.759 227.328 655.567 224.48 660.303 222.624C665.103 220.768 670.479 219.84 676.431 219.84C680.527 219.84 684.463 220.32 688.239 221.28C692.079 222.176 695.535 223.616 698.607 225.6C701.679 227.584 704.111 230.144 705.903 233.28C707.759 236.352 708.719 240.064 708.783 244.416C708.783 244.992 708.559 245.504 708.111 245.952C707.727 246.336 707.247 246.528 706.671 246.528H687.087C686.063 246.528 685.295 246.336 684.783 245.952C684.335 245.504 683.919 244.768 683.535 243.744C682.831 241.696 681.871 240.32 680.655 239.616C679.439 238.912 677.999 238.56 676.335 238.56C674.223 238.56 672.527 239.136 671.247 240.288C670.031 241.376 669.359 243.392 669.231 246.336C669.039 251.584 669.039 256.96 669.231 262.464C669.359 265.408 670.031 267.456 671.247 268.608C672.527 269.696 674.223 270.24 676.335 270.24C677.999 270.24 679.439 269.856 680.655 269.088C681.935 268.32 682.895 266.976 683.535 265.056C683.855 263.968 684.271 263.232 684.783 262.848C685.295 262.464 686.063 262.272 687.087 262.272H706.671C707.247 262.272 707.727 262.496 708.111 262.944C708.559 263.328 708.783 263.808 708.783 264.384C708.719 268.736 707.759 272.48 705.903 275.616C704.111 278.688 701.679 281.216 698.607 283.2C695.535 285.184 692.079 286.656 688.239 287.616C684.463 288.512 680.527 288.96 676.431 288.96Z" fill="#212121"/>
<path d="M732.053 287.232C732.565 287.744 733.173 288 733.877 288H753.077C753.781 288 754.389 287.744 754.901 287.232C755.413 286.72 755.669 286.112 755.669 285.408V241.44H771.605C772.309 241.44 772.917 241.184 773.429 240.672C773.941 240.16 774.197 239.552 774.197 238.848V223.392C774.197 222.688 773.941 222.08 773.429 221.568C772.917 221.056 772.309 220.8 771.605 220.8H715.349C714.645 220.8 714.037 221.056 713.525 221.568C713.013 222.08 712.757 222.688 712.757 223.392V238.848C712.757 239.552 713.013 240.16 713.525 240.672C714.037 241.184 714.645 241.44 715.349 241.44H731.285V285.408C731.285 286.112 731.541 286.72 732.053 287.232Z" fill="#212121"/>
</svg>
